<?xml version="1.0" encoding="utf-8"?>
<!-- Generator: Adobe Illustrator 19.1.0, SVG Export Plug-In . SVG Version: 6.00 Build 0)  -->
<svg version="1.1" id="Layer_1" xmlns="http://www.w3.org/2000/svg" xmlns:xlink="http://www.w3.org/1999/xlink" x="0px" y="0px"
	 viewBox="-218 219.1 187.9 187.9" style="enable-background:new -218 219.1 187.9 187.9;" xml:space="preserve">
<style type="text/css">
	.st0{fill:#3B65FF;}
</style>
<g>
	<path class="st0" d="M-32,294.3c-0.7-3.2-3.8-5.3-7.1-4.7c-0.4,0.1-0.8,0.2-1.2,0.4c-2.5,1.1-4,3.9-3.5,6.7
		c6.4,31.3-6.1,63.6-31.9,82.5c-17.5,12.9-39.2,18.1-60.9,14.7c-21.8-3.4-40.8-14.9-53.7-32.4c-26.7-36.5-18.8-87.9,17.7-114.6
		c17.5-12.9,39.2-18.1,60.9-14.7c21.1,3.3,39.7,14.2,52.5,30.9l-5.5-0.8c-3.3-0.5-6.3,1.8-6.8,5.1c-0.5,3.3,1.8,6.3,5.1,6.8
		l19.9,2.9c0.1,0,0.3,0,0.4,0c0.2,0,0.3,0,0.5,0c2.9,0,5.5-2.2,5.9-5.1l2.9-19.9c0.5-3.3-1.8-6.3-5.1-6.8c-3.3-0.5-6.3,1.8-6.8,5.1
		l-0.8,5.6c-14.7-19.3-36.1-31.9-60.4-35.7c-24.9-3.8-49.7,2.2-69.9,16.9c-20.1,14.8-33.3,36.6-37.2,61.5
		c-3.8,24.9,2.2,49.7,16.9,69.9c14.8,20.1,36.6,33.3,61.5,37.2c4.9,0.8,9.8,1.1,14.7,1.1c19.8,0,39-6.2,55.2-18.1
		C-39.1,367.3-24.7,330.1-32,294.3L-32,294.3z"/>
	<path class="st0" d="M-91.4,315.3h-20.5c-1.5-3.4-4.2-6.1-7.6-7.6v-46c0-3.3-2.7-6-6-6c-3.3,0-6,2.7-6,6v46
		c-5.2,2.3-8.9,7.6-8.9,13.6c0,8.2,6.7,14.9,14.9,14.9c6.1,0,11.3-3.7,13.6-8.9h20.5c3.3,0,6-2.7,6-6
		C-85.4,318-88.1,315.3-91.4,315.3z M-128.4,321.3c0-1.6,1.3-2.9,2.9-2.9s2.9,1.3,2.9,2.9c0,1.6-1.3,2.9-2.9,2.9
		S-128.4,322.9-128.4,321.3z"/>
</g>
</svg>
