<?xml version="1.0" encoding="iso-8859-1"?>
<!-- Generator: Adobe Illustrator 19.0.0, SVG Export Plug-In . SVG Version: 6.00 Build 0)  -->
<svg version="1.1" id="Capa_1" xmlns="http://www.w3.org/2000/svg" xmlns:xlink="http://www.w3.org/1999/xlink" x="0px" y="0px"
	 viewBox="0 0 449.995 449.995" style="enable-background:new 0 0 449.995 449.995;" xml:space="preserve">
<g id="XMLID_2_">
	<path id="XMLID_863_" d="M449.993,179.995l0.001-59.999l-33.776-0.001c-2.834-11.009-7.197-21.402-12.84-30.951l23.897-23.896
		L384.85,22.722l-23.898,23.896c-9.549-5.643-19.943-10.006-30.953-12.84V0h-60v33.777c-11.01,2.834-21.403,7.198-30.951,12.841
		L215.149,22.72l-42.427,42.426l23.898,23.897c-5.643,9.549-10.007,19.942-12.841,30.952h-33.777v60h33.776
		c2.833,11.01,7.197,21.404,12.84,30.953l-23.897,23.896l42.427,42.427l23.896-23.897c9.549,5.643,19.942,10.007,30.952,12.841
		v33.775h60v-33.774c11.011-2.833,21.405-7.198,30.954-12.841l23.896,23.896l42.427-42.426l-23.896-23.896
		c5.643-9.549,10.007-19.943,12.841-30.955H449.993z M299.999,199.997c-27.614,0-50-22.386-50-50s22.386-50,50-50
		c27.614,0,50,22.386,50,50S327.613,199.997,299.999,199.997z"/>
	<path id="XMLID_866_" d="M168.91,309.368l15.941-15.941l-28.281-28.281l-15.94,15.94c-6.367-3.762-13.29-6.682-20.63-8.571v-22.518
		H80.001l0.001,22.518c-7.341,1.891-14.264,4.809-20.63,8.572l-15.941-15.941l-28.282,28.282l15.942,15.94
		c-3.762,6.367-6.682,13.29-8.57,20.631H0.001v39.996l22.521-0.001c1.889,7.341,4.808,14.263,8.569,20.629l-15.941,15.942
		l28.281,28.281l15.942-15.941c6.366,3.762,13.289,6.681,20.628,8.569l0.001,22.52h39.995v-22.52
		c7.341-1.889,14.264-4.809,20.63-8.57l15.942,15.941l28.281-28.281l-15.941-15.94c3.762-6.366,6.682-13.29,8.57-20.63l22.519-0.002
		v-39.994H177.48C175.592,322.658,172.672,315.735,168.91,309.368z M100.001,383.329c-18.41,0-33.334-14.924-33.334-33.334
		c0-18.41,14.924-33.334,33.334-33.334c18.409,0,33.333,14.924,33.333,33.334C133.334,368.405,118.41,383.329,100.001,383.329z"/>
</g>
<g>
</g>
<g>
</g>
<g>
</g>
<g>
</g>
<g>
</g>
<g>
</g>
<g>
</g>
<g>
</g>
<g>
</g>
<g>
</g>
<g>
</g>
<g>
</g>
<g>
</g>
<g>
</g>
<g>
</g>
</svg>
