<?xml version="1.0" encoding="utf-8"?>
<!-- Generator: Adobe Illustrator 19.1.0, SVG Export Plug-In . SVG Version: 6.00 Build 0)  -->
<svg version="1.1" id="Capa_1" xmlns="http://www.w3.org/2000/svg" xmlns:xlink="http://www.w3.org/1999/xlink" x="0px" y="0px"
	 viewBox="-301 302.4 21.6 21.6" style="enable-background:new -301 302.4 21.6 21.6;" xml:space="preserve">
<style type="text/css">
	.st0{fill:#FFFFFF;}
</style>
<g>
	<path class="st0" d="M-282.4,310.8l-0.5-1.3c0,0,1.3-2.9,1.2-3l-1.7-1.6c-0.1-0.1-3,1.2-3,1.2l-1.3-0.5c0,0-1.2-2.9-1.3-2.9h-2.4
		c-0.2,0-1.2,2.9-1.2,2.9l-1.3,0.5c0,0-2.9-1.2-3-1.1l-1.7,1.6c-0.1,0.1,1.2,2.9,1.2,2.9l-0.5,1.3c0,0-3,1.1-3,1.3v2.3
		c0,0.2,3,1.2,3,1.2l0.5,1.3c0,0-1.3,2.9-1.2,3l1.7,1.6c0.1,0.1,3-1.2,3-1.2l1.3,0.5c0,0,1.2,2.9,1.3,2.9h2.4c0.2,0,1.2-2.9,1.2-2.9
		l1.3-0.5c0,0,2.9,1.2,3,1.1l1.7-1.6c0.1-0.1-1.2-2.9-1.2-2.9l0.5-1.3c0,0,3-1.1,3-1.3V312C-279.4,311.8-282.4,310.8-282.4,310.8z
		 M-286.7,313.2c0,1.9-1.6,3.4-3.5,3.4c-1.9,0-3.5-1.5-3.5-3.4s1.6-3.4,3.5-3.4C-288.3,309.8-286.7,311.3-286.7,313.2z"/>
</g>
</svg>
