<?xml version="1.0" encoding="utf-8"?>
<!-- Generator: Adobe Illustrator 19.1.0, SVG Export Plug-In . SVG Version: 6.00 Build 0)  -->
<svg version="1.1" id="Layer_1" xmlns="http://www.w3.org/2000/svg" xmlns:xlink="http://www.w3.org/1999/xlink" x="0px" y="0px"
	 viewBox="-56 57 512 512" style="enable-background:new -56 57 512 512;" xml:space="preserve">
<style type="text/css">
	.st0{fill:#231F20;}
	.st1{fill:none;stroke:#231F20;stroke-width:20;stroke-miterlimit:10;}
</style>
<path class="st0" d="M200,68C64.9,68-45,177.9-45,313S64.9,558,200,558s245-109.9,245-245S335.1,68,200,68z M200,537.1
	C76.4,537.1-24.1,436.6-24.1,313S76.4,88.9,200,88.9S424.1,189.4,424.1,313S323.6,537.1,200,537.1z"/>
<g>
	<path class="st1" d="M170.4,436.5h-33.8c-4.5,0-8.1-3.7-8.1-8.1V197.6c0-4.5,3.7-8.1,8.1-8.1h33.8c4.5,0,8.1,3.7,8.1,8.1v230.7
		C178.6,432.8,174.9,436.5,170.4,436.5z"/>
	<path class="st1" d="M263.4,436.5h-33.8c-4.5,0-8.1-3.7-8.1-8.1V197.6c0-4.5,3.7-8.1,8.1-8.1h33.8c4.5,0,8.1,3.7,8.1,8.1v230.7
		C271.6,432.8,267.9,436.5,263.4,436.5z"/>
</g>
</svg>
