<?xml version="1.0" encoding="utf-8"?>
<!-- Generator: Adobe Illustrator 19.1.0, SVG Export Plug-In . SVG Version: 6.00 Build 0)  -->
<svg version="1.1" id="Layer_1" xmlns="http://www.w3.org/2000/svg" xmlns:xlink="http://www.w3.org/1999/xlink" x="0px" y="0px"
	 viewBox="-290 291 44 44" style="enable-background:new -290 291 44 44;" xml:space="preserve">
<style type="text/css">
	.st0{fill:#3B65FF;}
</style>
<g>
	<g>
		<path class="st0" d="M-268.3,295.3c-0.1-0.1-0.1-0.1-0.2-0.1l-3.9-3.9c-0.4-0.4-1-0.4-1.4,0c-0.4,0.4-0.4,1,0,1.4l2.4,2.4H-284
			c-3.3,0-6,2.7-6,6v24c0,3.3,2.7,6,6,6h13c0.6,0,1-0.4,1-1s-0.4-1-1-1h-13c-2.2,0-4-1.8-4-4v-24c0-2.2,1.8-4,4-4h12.6l-2.4,2.4
			c-0.4,0.4-0.4,1,0,1.4c0.4,0.4,1,0.4,1.4,0l3.9-3.9c0.1,0,0.2-0.1,0.2-0.1c0.2-0.2,0.3-0.5,0.3-0.7
			C-268,295.7-268.1,295.5-268.3,295.3z"/>
	</g>
</g>
<g>
	<g>
		<path class="st0" d="M-252,295h-13c-0.6,0-1,0.4-1,1s0.4,1,1,1h13c2.2,0,4,1.8,4,4v24c0,2.2-1.8,4-4,4h-12.6l2.4-2.4
			c0.4-0.4,0.4-1,0-1.4c-0.4-0.4-1-0.4-1.4,0l-3.9,3.9c-0.1,0-0.2,0.1-0.2,0.1c-0.2,0.2-0.3,0.5-0.3,0.7c0,0.3,0.1,0.5,0.3,0.7
			c0.1,0.1,0.1,0.1,0.2,0.1l3.9,3.9c0.4,0.4,1,0.4,1.4,0c0.4-0.4,0.4-1,0-1.4l-2.4-2.4h12.6c3.3,0,6-2.7,6-6v-24
			C-246,297.7-248.7,295-252,295z"/>
	</g>
</g>
</svg>
