<?xml version="1.0" encoding="utf-8"?>
<!-- Generator: Adobe Illustrator 19.1.0, SVG Export Plug-In . SVG Version: 6.00 Build 0)  -->
<svg version="1.1" id="Capa_1" xmlns="http://www.w3.org/2000/svg" xmlns:xlink="http://www.w3.org/1999/xlink" x="0px" y="0px"
	 viewBox="-67 67.9 490.1 490.1" style="enable-background:new -67 67.9 490.1 490.1;" xml:space="preserve">
<style type="text/css">
	.st0{fill:#3B65FF;}
</style>
<g>
	<g>
		<path class="st0" d="M127.5,392.2l15-24.2c3.6-5.8,1.8-13.3-4-16.9c-5.7-3.6-13.3-1.8-16.9,4l-15,24.2
			c-27.2,43.9-66,69.1-106.6,69.1h-54.8c-6.8,0-12.2,5.5-12.2,12.3s5.5,12.3,12.2,12.3H0.1C49.4,472.9,95.8,443.4,127.5,392.2z"/>
		<path class="st0" d="M419.4,156.6L360,97.1c-4.8-4.8-12.5-4.8-17.3,0s-4.8,12.5,0,17.3l38.6,38.6c-0.1,0-0.1,0-0.2,0h-56.7
			c-49.2,0-95.7,29.4-127.4,80.6l-9.2,14.9c-3.6,5.8-1.8,13.3,4,16.9c2,1.2,4.2,1.8,6.4,1.8c4.1,0,8.1-2.1,10.4-5.8l9.2-14.9
			c27.2-43.9,66-69,106.6-69H381c0.1,0,0.1,0,0.2,0l-38.6,38.6c-4.8,4.8-4.8,12.5,0,17.3c2.4,2.4,5.5,3.6,8.7,3.6s6.3-1.2,8.7-3.6
			l59.5-59.5C424.2,169.1,424.2,161.3,419.4,156.6z M393.3,165.4c0-0.1,0-0.1,0-0.2s0-0.1,0-0.2l0.2,0.2L393.3,165.4z"/>
		<path class="st0" d="M342.6,528.8c2.4,2.4,5.5,3.6,8.7,3.6s6.3-1.2,8.7-3.6l59.5-59.5c4.8-4.8,4.8-12.5,0-17.3L360,392.6
			c-4.8-4.8-12.5-4.8-17.3,0s-4.8,12.5,0,17.3l38.6,38.6c-0.1,0-0.1,0-0.2,0h-54.9c-40.5,0-79.4-25.2-106.6-69.1l-90.2-145.7
			C97.7,182.4,51.2,153.1,2,153.1h-56.8c-6.8,0-12.2,5.5-12.2,12.3c0,6.8,5.5,12.3,12.2,12.3H1.9c40.5,0,79.4,25.2,106.6,69
			l90.2,145.7c31.7,51.3,78.2,80.7,127.4,80.7H381c0.1,0,0.1,0,0.2,0l-38.6,38.6C337.9,516.2,337.9,523.9,342.6,528.8z M393.3,460.4
			l0.2,0.2l-0.2,0.2c0-0.1,0-0.1,0-0.2S393.3,460.5,393.3,460.4z"/>
	</g>
</g>
</svg>
